<?xml version="1.0" encoding="UTF-8" standalone="no"?>
<!DOCTYPE svg PUBLIC "-//W3C//DTD SVG 1.1//EN" "http://www.w3.org/Graphics/SVG/1.1/DTD/svg11.dtd">
<svg width="100%" height="100%" viewBox="0 0 1000 200" version="1.1" xmlns="http://www.w3.org/2000/svg" xmlns:xlink="http://www.w3.org/1999/xlink" xml:space="preserve" xmlns:serif="http://www.serif.com/" style="fill-rule:evenodd;clip-rule:evenodd;stroke-linejoin:round;stroke-miterlimit:2;">
    <g id="Logo" transform="matrix(1,0,0,1,27.0793,0)">
        <g transform="matrix(0.21601,0,0,0.21601,-316.939,-332.128)">
            <g transform="matrix(1,0,0,1,2005.91,2138.99)">
                <path d="M0,-413.895L-137.964,-413.895L-148.196,-275.93L-158.436,-137.965L-168.667,0L-30.702,0L-20.471,-137.965L-10.239,-275.93L0,-413.895ZM-186.655,-137.965L-196.895,0L-334.86,0L-324.62,-137.965L-314.389,-275.93L-176.424,-275.93L-186.655,-137.965Z"/>
            </g>
            <g transform="matrix(1,0,0,1,1995.1,1862.01)">
                <path d="M0,413.903L137.965,413.903L148.205,275.938L158.428,137.965L168.667,0L30.703,0L20.463,137.965L10.24,275.938L0,413.903ZM186.665,137.965L196.887,0L334.852,0L324.629,137.965L314.389,275.938L176.424,275.938L186.665,137.965Z"/>
            </g>
        </g>
        <g transform="matrix(1,0,0,1,-67.349,-15.4289)">
            <g transform="matrix(90,0,0,90,316.125,139.774)">
                <path d="M0.291,0.01C0.243,0.01 0.2,-0.002 0.163,-0.026C0.125,-0.049 0.095,-0.082 0.073,-0.123C0.051,-0.164 0.04,-0.21 0.04,-0.263C0.04,-0.316 0.051,-0.363 0.073,-0.404C0.094,-0.445 0.124,-0.477 0.161,-0.501C0.198,-0.524 0.241,-0.536 0.288,-0.536C0.323,-0.536 0.356,-0.529 0.387,-0.514C0.418,-0.499 0.442,-0.481 0.461,-0.46L0.461,-0.74L0.564,-0.74L0.564,-0L0.461,-0L0.461,-0.072C0.445,-0.049 0.421,-0.03 0.39,-0.014C0.359,0.002 0.326,0.01 0.291,0.01ZM0.305,-0.079C0.336,-0.079 0.364,-0.087 0.388,-0.103C0.412,-0.119 0.431,-0.141 0.445,-0.169C0.458,-0.196 0.465,-0.228 0.465,-0.263C0.465,-0.298 0.458,-0.33 0.445,-0.358C0.431,-0.385 0.412,-0.407 0.388,-0.423C0.364,-0.439 0.336,-0.447 0.305,-0.447C0.274,-0.447 0.246,-0.439 0.222,-0.423C0.198,-0.407 0.179,-0.385 0.166,-0.358C0.152,-0.33 0.145,-0.298 0.145,-0.263C0.145,-0.228 0.152,-0.196 0.166,-0.169C0.179,-0.141 0.198,-0.119 0.222,-0.103C0.246,-0.087 0.274,-0.079 0.305,-0.079Z" style="fill-rule:nonzero;"/>
            </g>
            <g transform="matrix(90,0,0,90,373.185,139.774)">
                <path d="M0.308,0.01C0.257,0.01 0.211,-0.002 0.171,-0.026C0.13,-0.049 0.098,-0.082 0.075,-0.123C0.052,-0.164 0.04,-0.21 0.04,-0.263C0.04,-0.316 0.052,-0.363 0.075,-0.404C0.098,-0.445 0.13,-0.477 0.171,-0.501C0.211,-0.524 0.257,-0.536 0.308,-0.536C0.359,-0.536 0.404,-0.524 0.445,-0.501C0.485,-0.477 0.517,-0.445 0.54,-0.404C0.563,-0.363 0.575,-0.316 0.575,-0.263C0.575,-0.21 0.563,-0.164 0.54,-0.123C0.517,-0.082 0.485,-0.049 0.445,-0.026C0.404,-0.002 0.359,0.01 0.308,0.01ZM0.308,-0.084C0.339,-0.084 0.367,-0.092 0.392,-0.108C0.417,-0.123 0.436,-0.145 0.45,-0.172C0.464,-0.199 0.471,-0.229 0.47,-0.263C0.471,-0.298 0.464,-0.329 0.45,-0.356C0.436,-0.383 0.417,-0.404 0.392,-0.419C0.367,-0.434 0.339,-0.442 0.308,-0.442C0.277,-0.442 0.249,-0.434 0.224,-0.419C0.199,-0.403 0.179,-0.382 0.165,-0.355C0.151,-0.327 0.144,-0.297 0.145,-0.263C0.144,-0.229 0.151,-0.199 0.165,-0.172C0.179,-0.145 0.199,-0.123 0.224,-0.108C0.249,-0.092 0.277,-0.084 0.308,-0.084Z" style="fill-rule:nonzero;"/>
            </g>
            <g transform="matrix(90,0,0,90,428.535,139.774)">
                <path d="M0.07,-0L0.07,-0.525L0.174,-0.525L0.174,-0.442C0.191,-0.467 0.214,-0.489 0.244,-0.507C0.274,-0.525 0.306,-0.534 0.339,-0.534C0.421,-0.534 0.474,-0.497 0.499,-0.424C0.509,-0.444 0.524,-0.462 0.544,-0.479C0.563,-0.496 0.585,-0.509 0.609,-0.519C0.632,-0.529 0.656,-0.534 0.68,-0.534C0.797,-0.534 0.855,-0.461 0.855,-0.315L0.855,-0L0.751,-0L0.751,-0.309C0.751,-0.354 0.743,-0.387 0.726,-0.408C0.709,-0.429 0.682,-0.439 0.646,-0.439C0.608,-0.439 0.576,-0.427 0.551,-0.403C0.526,-0.379 0.513,-0.349 0.513,-0.314L0.513,-0L0.409,-0L0.409,-0.311C0.409,-0.352 0.4,-0.384 0.383,-0.406C0.365,-0.428 0.339,-0.439 0.306,-0.439C0.281,-0.439 0.259,-0.434 0.239,-0.423C0.219,-0.412 0.203,-0.397 0.192,-0.379C0.18,-0.36 0.174,-0.339 0.174,-0.316L0.174,-0L0.07,-0Z" style="fill-rule:nonzero;"/>
            </g>
            <g transform="matrix(90,0,0,90,511.425,139.774)">
                <path d="M0.274,0.01C0.231,0.01 0.191,-0.002 0.156,-0.026C0.12,-0.05 0.091,-0.083 0.07,-0.124C0.049,-0.165 0.038,-0.212 0.038,-0.264C0.038,-0.317 0.049,-0.364 0.071,-0.405C0.092,-0.446 0.122,-0.478 0.159,-0.501C0.196,-0.524 0.237,-0.536 0.283,-0.536C0.322,-0.536 0.357,-0.528 0.388,-0.511C0.418,-0.494 0.441,-0.472 0.457,-0.445L0.457,-0.525L0.561,-0.525L0.561,-0L0.457,-0L0.457,-0.081C0.439,-0.056 0.413,-0.034 0.381,-0.017C0.347,0.001 0.312,0.01 0.274,0.01ZM0.301,-0.085C0.332,-0.085 0.36,-0.093 0.384,-0.108C0.408,-0.123 0.427,-0.145 0.441,-0.172C0.454,-0.199 0.461,-0.229 0.461,-0.264C0.461,-0.298 0.454,-0.328 0.441,-0.355C0.427,-0.382 0.408,-0.403 0.384,-0.418C0.36,-0.433 0.332,-0.441 0.301,-0.441C0.27,-0.441 0.243,-0.433 0.22,-0.418C0.196,-0.403 0.177,-0.382 0.164,-0.355C0.15,-0.328 0.143,-0.298 0.143,-0.264C0.143,-0.229 0.15,-0.199 0.164,-0.172C0.177,-0.145 0.196,-0.123 0.22,-0.108C0.243,-0.093 0.27,-0.085 0.301,-0.085Z" style="fill-rule:nonzero;"/>
            </g>
            <g transform="matrix(90,0,0,90,568.395,139.774)">
                <path d="M0.141,-0.641C0.119,-0.641 0.102,-0.647 0.09,-0.658C0.078,-0.669 0.072,-0.685 0.072,-0.706C0.072,-0.725 0.078,-0.741 0.091,-0.753C0.103,-0.765 0.12,-0.771 0.141,-0.771C0.163,-0.771 0.18,-0.765 0.192,-0.754C0.204,-0.743 0.21,-0.727 0.21,-0.706C0.21,-0.687 0.204,-0.671 0.192,-0.659C0.179,-0.647 0.162,-0.641 0.141,-0.641ZM0.091,-0L0.091,-0.525L0.194,-0.525L0.194,-0L0.091,-0Z" style="fill-rule:nonzero;"/>
            </g>
            <g transform="matrix(90,0,0,90,593.415,139.774)">
                <path d="M0.072,-0L0.072,-0.525L0.175,-0.525L0.175,-0.443C0.192,-0.469 0.217,-0.491 0.249,-0.509C0.28,-0.527 0.313,-0.536 0.347,-0.536C0.467,-0.536 0.527,-0.464 0.527,-0.32L0.527,-0L0.424,-0L0.424,-0.313C0.424,-0.403 0.387,-0.446 0.313,-0.442C0.287,-0.442 0.264,-0.436 0.243,-0.426C0.222,-0.415 0.205,-0.4 0.193,-0.381C0.181,-0.362 0.175,-0.341 0.175,-0.318L0.175,-0L0.072,-0Z" style="fill-rule:nonzero;"/>
            </g>
            <g transform="matrix(90,0,0,90,646.965,139.774)">
                <path d="M0.072,0.22L0.072,-0.525L0.176,-0.525L0.176,-0.45C0.192,-0.473 0.216,-0.492 0.248,-0.509C0.279,-0.526 0.312,-0.534 0.346,-0.534C0.393,-0.534 0.435,-0.522 0.472,-0.499C0.509,-0.476 0.538,-0.444 0.559,-0.403C0.58,-0.362 0.591,-0.316 0.591,-0.263C0.591,-0.211 0.58,-0.165 0.56,-0.124C0.539,-0.083 0.51,-0.05 0.473,-0.027C0.436,-0.003 0.395,0.009 0.349,0.009C0.315,0.009 0.282,0.001 0.251,-0.014C0.22,-0.029 0.195,-0.048 0.176,-0.069L0.176,0.22L0.072,0.22ZM0.332,-0.086C0.363,-0.086 0.39,-0.094 0.414,-0.109C0.438,-0.124 0.457,-0.145 0.471,-0.172C0.485,-0.199 0.492,-0.229 0.492,-0.263C0.492,-0.297 0.485,-0.327 0.472,-0.354C0.458,-0.38 0.439,-0.401 0.415,-0.416C0.391,-0.431 0.363,-0.439 0.332,-0.439C0.301,-0.439 0.273,-0.432 0.249,-0.417C0.225,-0.401 0.206,-0.381 0.192,-0.354C0.178,-0.327 0.171,-0.297 0.171,-0.263C0.171,-0.229 0.178,-0.199 0.192,-0.172C0.206,-0.145 0.225,-0.124 0.249,-0.109C0.273,-0.094 0.301,-0.086 0.332,-0.086Z" style="fill-rule:nonzero;"/>
            </g>
            <g transform="matrix(90,0,0,90,703.755,139.774)">
                <path d="M0.274,0.01C0.231,0.01 0.191,-0.002 0.156,-0.026C0.12,-0.05 0.091,-0.083 0.07,-0.124C0.049,-0.165 0.038,-0.212 0.038,-0.264C0.038,-0.317 0.049,-0.364 0.071,-0.405C0.092,-0.446 0.122,-0.478 0.159,-0.501C0.196,-0.524 0.237,-0.536 0.283,-0.536C0.322,-0.536 0.357,-0.528 0.388,-0.511C0.418,-0.494 0.441,-0.472 0.457,-0.445L0.457,-0.525L0.561,-0.525L0.561,-0L0.457,-0L0.457,-0.081C0.439,-0.056 0.413,-0.034 0.381,-0.017C0.347,0.001 0.312,0.01 0.274,0.01ZM0.301,-0.085C0.332,-0.085 0.36,-0.093 0.384,-0.108C0.408,-0.123 0.427,-0.145 0.441,-0.172C0.454,-0.199 0.461,-0.229 0.461,-0.264C0.461,-0.298 0.454,-0.328 0.441,-0.355C0.427,-0.382 0.408,-0.403 0.384,-0.418C0.36,-0.433 0.332,-0.441 0.301,-0.441C0.27,-0.441 0.243,-0.433 0.22,-0.418C0.196,-0.403 0.177,-0.382 0.164,-0.355C0.15,-0.328 0.143,-0.298 0.143,-0.264C0.143,-0.229 0.15,-0.199 0.164,-0.172C0.177,-0.145 0.196,-0.123 0.22,-0.108C0.243,-0.093 0.27,-0.085 0.301,-0.085Z" style="fill-rule:nonzero;"/>
            </g>
            <g transform="matrix(90,0,0,90,760.725,139.774)">
                <path d="M0.307,0.23C0.27,0.23 0.233,0.224 0.196,0.213C0.159,0.201 0.129,0.186 0.106,0.167L0.144,0.087C0.164,0.102 0.189,0.115 0.219,0.124C0.248,0.133 0.278,0.138 0.307,0.138C0.418,0.138 0.474,0.085 0.474,-0.02L0.474,-0.083C0.465,-0.066 0.451,-0.051 0.433,-0.037C0.414,-0.023 0.394,-0.012 0.371,-0.003C0.347,0.006 0.324,0.01 0.3,0.01C0.25,0.01 0.206,-0.002 0.167,-0.026C0.128,-0.049 0.097,-0.082 0.074,-0.123C0.051,-0.164 0.04,-0.21 0.04,-0.263C0.04,-0.316 0.051,-0.363 0.074,-0.404C0.096,-0.445 0.127,-0.477 0.166,-0.501C0.205,-0.524 0.248,-0.536 0.297,-0.536C0.334,-0.536 0.368,-0.528 0.4,-0.511C0.432,-0.494 0.457,-0.475 0.474,-0.454L0.474,-0.525L0.577,-0.525L0.577,-0.032C0.577,0.051 0.553,0.116 0.505,0.162C0.457,0.207 0.391,0.23 0.307,0.23ZM0.311,-0.085C0.344,-0.085 0.373,-0.093 0.398,-0.108C0.423,-0.123 0.443,-0.144 0.457,-0.171C0.471,-0.198 0.478,-0.228 0.478,-0.263C0.478,-0.298 0.471,-0.329 0.457,-0.356C0.442,-0.383 0.423,-0.404 0.398,-0.419C0.373,-0.434 0.344,-0.442 0.311,-0.442C0.279,-0.442 0.251,-0.434 0.226,-0.419C0.201,-0.403 0.181,-0.382 0.167,-0.355C0.152,-0.327 0.145,-0.297 0.145,-0.263C0.145,-0.229 0.152,-0.199 0.167,-0.172C0.181,-0.145 0.201,-0.123 0.226,-0.108C0.251,-0.093 0.279,-0.085 0.311,-0.085Z" style="fill-rule:nonzero;"/>
            </g>
            <g transform="matrix(90,0,0,90,819.135,139.774)">
                <path d="M0.317,0.01C0.263,0.01 0.215,-0.002 0.174,-0.025C0.132,-0.048 0.099,-0.079 0.076,-0.119C0.052,-0.159 0.04,-0.205 0.04,-0.257C0.04,-0.312 0.051,-0.361 0.075,-0.403C0.097,-0.444 0.129,-0.477 0.17,-0.501C0.21,-0.524 0.256,-0.536 0.308,-0.537C0.353,-0.536 0.394,-0.525 0.431,-0.503C0.467,-0.481 0.496,-0.451 0.517,-0.413C0.538,-0.375 0.547,-0.331 0.546,-0.282L0.545,-0.238L0.143,-0.238C0.149,-0.191 0.169,-0.153 0.202,-0.126C0.235,-0.098 0.276,-0.084 0.327,-0.084C0.353,-0.084 0.377,-0.088 0.4,-0.097C0.422,-0.106 0.446,-0.121 0.472,-0.144L0.524,-0.071C0.499,-0.047 0.468,-0.028 0.43,-0.013C0.392,0.003 0.354,0.01 0.317,0.01ZM0.308,-0.442C0.218,-0.442 0.164,-0.401 0.147,-0.32L0.441,-0.32L0.441,-0.327C0.439,-0.349 0.432,-0.369 0.419,-0.386C0.406,-0.403 0.39,-0.417 0.371,-0.427C0.352,-0.437 0.331,-0.442 0.308,-0.442Z" style="fill-rule:nonzero;"/>
            </g>
            <g transform="matrix(90,0,0,90,871.875,139.774)">
                <path d="M0.114,0.011C0.092,0.011 0.075,0.005 0.063,-0.009C0.051,-0.022 0.045,-0.04 0.045,-0.064C0.045,-0.086 0.051,-0.104 0.064,-0.118C0.077,-0.132 0.093,-0.139 0.114,-0.139C0.136,-0.139 0.153,-0.133 0.165,-0.12C0.177,-0.107 0.183,-0.088 0.183,-0.064C0.183,-0.042 0.177,-0.024 0.164,-0.01C0.151,0.004 0.135,0.011 0.114,0.011Z" style="fill-rule:nonzero;"/>
            </g>
            <g transform="matrix(90,0,0,90,892.395,139.774)">
                <path d="M0.141,-0.641C0.119,-0.641 0.102,-0.647 0.09,-0.658C0.078,-0.669 0.072,-0.685 0.072,-0.706C0.072,-0.725 0.078,-0.741 0.091,-0.753C0.103,-0.765 0.12,-0.771 0.141,-0.771C0.163,-0.771 0.18,-0.765 0.192,-0.754C0.204,-0.743 0.21,-0.727 0.21,-0.706C0.21,-0.687 0.204,-0.671 0.192,-0.659C0.179,-0.647 0.162,-0.641 0.141,-0.641ZM0.091,-0L0.091,-0.525L0.194,-0.525L0.194,-0L0.091,-0Z" style="fill-rule:nonzero;"/>
            </g>
            <g transform="matrix(90,0,0,90,917.415,139.774)">
                <path d="M0.308,0.01C0.257,0.01 0.211,-0.002 0.171,-0.026C0.13,-0.049 0.098,-0.082 0.075,-0.123C0.052,-0.164 0.04,-0.21 0.04,-0.263C0.04,-0.316 0.052,-0.363 0.075,-0.404C0.098,-0.445 0.13,-0.477 0.171,-0.501C0.211,-0.524 0.257,-0.536 0.308,-0.536C0.359,-0.536 0.404,-0.524 0.445,-0.501C0.485,-0.477 0.517,-0.445 0.54,-0.404C0.563,-0.363 0.575,-0.316 0.575,-0.263C0.575,-0.21 0.563,-0.164 0.54,-0.123C0.517,-0.082 0.485,-0.049 0.445,-0.026C0.404,-0.002 0.359,0.01 0.308,0.01ZM0.308,-0.084C0.339,-0.084 0.367,-0.092 0.392,-0.108C0.417,-0.123 0.436,-0.145 0.45,-0.172C0.464,-0.199 0.471,-0.229 0.47,-0.263C0.471,-0.298 0.464,-0.329 0.45,-0.356C0.436,-0.383 0.417,-0.404 0.392,-0.419C0.367,-0.434 0.339,-0.442 0.308,-0.442C0.277,-0.442 0.249,-0.434 0.224,-0.419C0.199,-0.403 0.179,-0.382 0.165,-0.355C0.151,-0.327 0.144,-0.297 0.145,-0.263C0.144,-0.229 0.151,-0.199 0.165,-0.172C0.179,-0.145 0.199,-0.123 0.224,-0.108C0.249,-0.092 0.277,-0.084 0.308,-0.084Z" style="fill-rule:nonzero;"/>
            </g>
        </g>
    </g>
</svg>
